<?xml version="1.0" encoding="utf-8"?>
<!-- Generator: Adobe Illustrator 18.0.0, SVG Export Plug-In . SVG Version: 6.00 Build 0)  -->
<!DOCTYPE svg PUBLIC "-//W3C//DTD SVG 1.1//EN" "http://www.w3.org/Graphics/SVG/1.1/DTD/svg11.dtd">
<svg version="1.1" id="Layer_1" xmlns="http://www.w3.org/2000/svg" xmlns:xlink="http://www.w3.org/1999/xlink" x="0px" y="0px"
	 viewBox="0 0 98.3 99.4" enable-background="new 0 0 98.3 99.4" xml:space="preserve">
<g>
	<path fill="#233262" stroke="#FFFFFF" stroke-width="0.5" stroke-miterlimit="10" d="M2.5,0h40.7c0.8,0,1.3,0.4,1.6,1.2
		C44.9,1.3,45,1.5,45,1.6v33.2c0,0.5-0.3,1-0.8,1.4c-0.3,0.2-0.6,0.3-1,0.3H2.6c-0.8,0-1.3-0.4-1.6-1.1c-0.1-0.2-0.1-0.4-0.1-0.6
		V1.7C0.9,1,1.2,0.4,2,0.1C2.2,0,2.4,0,2.5,0z M28.2,36.6c0,0,0.2,0.6,0.4,1.9c0.3,1.7,0.4,2.6,0.4,2.7c0.2,0.3,0.5,0.6,1.2,0.9
		c0.6,0.2,0.8,0.3,0.8,0.4c0,0,0.1,0.1,0.1,0.2v0.1c0,0.3-0.2,0.5-0.6,0.5H15.3c-0.2,0-0.4-0.1-0.4-0.2c0-0.1-0.1-0.1-0.1-0.2v-0.1
		c0-0.2,0-0.3,0.1-0.4c0.1-0.1,0.4-0.2,0.9-0.4c0.5-0.3,0.8-0.7,1.1-1.4c0.1-0.2,0.2-1.1,0.4-2.7l0.2-1.2H28.2z"/>
	<path fill="none" stroke="#FFFFFF" stroke-width="0.5" stroke-miterlimit="10" d="M3.9,1.5h38c0.7,0,1.2,0.3,1.5,0.9
		c0.1,0.1,0.1,0.2,0.1,0.3v24.5c0,0.4-0.3,0.7-0.8,1c-0.3,0.1-0.6,0.2-0.9,0.2H4c-0.7,0-1.2-0.3-1.5-0.8c-0.1-0.1-0.1-0.3-0.1-0.4
		V2.7c0-0.5,0.3-0.9,1-1.2C3.6,1.5,3.8,1.5,3.9,1.5z"/>
	<g>
		<path fill="#FFFFFF" d="M4,2.8v23.7h37.8c0,0,0,0,0,0V2.9c0,0,0,0,0,0H4z"/>
	</g>
	<circle fill="#FFFFFF" cx="23.1" cy="32.3" r="1"/>
</g>
<g>
	<path fill="#233262" stroke="#FFFFFF" stroke-width="0.5" stroke-miterlimit="10" d="M1.6,56.2h40.7c0.8,0,1.3,0.4,1.6,1.2
		c0.1,0.1,0.1,0.3,0.1,0.4V91c0,0.5-0.3,1-0.8,1.4c-0.3,0.2-0.6,0.3-1,0.3H1.7c-0.8,0-1.3-0.4-1.6-1.1C0,91.3,0,91.1,0,90.9V57.9
		c0-0.7,0.4-1.2,1.1-1.6C1.3,56.2,1.5,56.2,1.6,56.2z M27.3,92.8c0,0,0.2,0.6,0.4,1.9c0.3,1.7,0.4,2.6,0.4,2.7
		c0.2,0.3,0.5,0.6,1.2,0.9c0.6,0.2,0.8,0.3,0.8,0.4c0,0,0.1,0.1,0.1,0.2v0.1c0,0.3-0.2,0.5-0.6,0.5H14.4c-0.2,0-0.4-0.1-0.4-0.2
		c0-0.1-0.1-0.1-0.1-0.2v-0.1c0-0.2,0-0.3,0.1-0.4c0.1-0.1,0.4-0.2,0.9-0.4c0.5-0.3,0.8-0.7,1.1-1.4c0.1-0.2,0.2-1.1,0.4-2.7
		l0.2-1.2H27.3z"/>
	<path fill="none" stroke="#FFFFFF" stroke-width="0.5" stroke-miterlimit="10" d="M3,57.7h38c0.7,0,1.2,0.3,1.5,0.9
		c0.1,0.1,0.1,0.2,0.1,0.3v24.5c0,0.4-0.3,0.7-0.8,1c-0.3,0.1-0.6,0.2-0.9,0.2H3.1c-0.7,0-1.2-0.3-1.5-0.8c-0.1-0.1-0.1-0.3-0.1-0.4
		V58.9c0-0.5,0.3-0.9,1-1.2C2.7,57.7,2.9,57.7,3,57.7z"/>
	<g>
		<path fill="#FFFFFF" d="M3.1,59v23.7h37.8c0,0,0,0,0,0V59c0,0,0,0,0,0H3.1z"/>
	</g>
	<circle fill="#FFFFFF" cx="22.2" cy="88.5" r="1"/>
</g>
<g>
	<path fill="#233262" d="M22.8,73.2l-10.4,4.8c-0.8,0.4-1.4,1.1-1.7,2.1l-0.7,2h24.5l-0.8-2c-0.3-0.8-0.8-1.4-1.4-1.7L22.8,73.2z"/>
	<g>
		<path fill="#233262" d="M22.3,76.3c-3.5,0-6-5.6-6-8.6c0-3.3,2.7-6,6-6s6,2.7,6,6C28.3,70.7,25.8,76.3,22.3,76.3z"/>
		<path fill="#FFFFFF" d="M22.3,62.7c2.8,0,5,2.2,5,5c0,2.8-2.2,7.6-5,7.6s-5-4.9-5-7.6C17.3,64.9,19.6,62.7,22.3,62.7 M22.3,60.7
			c-3.9,0-7,3.1-7,7c0,3.4,2.7,9.6,7,9.6c4.3,0,7-6.2,7-9.6C29.3,63.8,26.2,60.7,22.3,60.7L22.3,60.7z"/>
	</g>
</g>
<g>
	<path fill="#233262" d="M23.5,17l-10.4,4.8c-0.8,0.4-1.4,1.1-1.7,2.1l-0.7,2h24.5l-0.8-2c-0.3-0.8-0.8-1.4-1.4-1.7L23.5,17z"/>
	<g>
		<path fill="#233262" d="M23.1,20.1c-3.5,0-6-5.6-6-8.6c0-3.3,2.7-6,6-6s6,2.7,6,6C29.1,14.5,26.6,20.1,23.1,20.1z"/>
		<path fill="#FFFFFF" d="M23.1,6.5c2.8,0,5,2.2,5,5s-2.2,7.6-5,7.6c-2.8,0-5-4.9-5-7.6S20.3,6.5,23.1,6.5 M23.1,4.5
			c-3.9,0-7,3.1-7,7c0,3.4,2.7,9.6,7,9.6c4.3,0,7-6.2,7-9.6C30.1,7.6,27,4.5,23.1,4.5L23.1,4.5z"/>
	</g>
</g>
<path fill="none" stroke="#262261" stroke-width="2" stroke-miterlimit="10" d="M78.7,21.3V17c0-5.9-4.8-10.7-10.7-10.7H45.8"/>
<path fill="none" stroke="#262261" stroke-width="2" stroke-miterlimit="10" d="M78.2,78.6c0,5.9-4.8,10.7-10.7,10.7H45.3"/>
<path fill="none" stroke="#404041" stroke-width="4" stroke-miterlimit="10" d="M77.6,23.9c-6.7,0-12.1,5.4-12.1,12.1
	c0,5,0.1,16.4,0.1,16.4l24.1,0.1c0,0-0.1-9.8-0.1-16.5S84.3,23.9,77.6,23.9z"/>
<circle fill="#FFFFFF" stroke="#404041" stroke-width="4" stroke-miterlimit="10" cx="77.7" cy="58" r="18.3"/>
<g>
	<path fill="#233262" d="M78.2,59.8v7.9c3.8-0.4,6.8-3.6,6.8-7.5h0v-1.7h-5.6C78.7,58.5,78.2,59,78.2,59.8z"/>
	<path fill="#00ADEE" d="M75.3,57h-5.4v-6.7c0,0,3.1-1,6.9-1.1v6.3C76.8,56.3,76.1,57,75.3,57z"/>
	<path fill="#233262" d="M76.8,59.7v7.9C73,67.2,70,64,69.9,60.1h0v-1.7h5.6C76.2,58.4,76.8,59,76.8,59.7z"/>
	<path fill="#00ADEE" d="M79.6,57h5.4v-6.7c0,0-3.1-1-6.9-1.1v6.3C78.2,56.4,78.8,57,79.6,57z"/>
</g>
</svg>
