<?xml version="1.0" encoding="utf-8"?>
<!-- Generator: Adobe Illustrator 18.0.0, SVG Export Plug-In . SVG Version: 6.00 Build 0)  -->
<!DOCTYPE svg PUBLIC "-//W3C//DTD SVG 1.1//EN" "http://www.w3.org/Graphics/SVG/1.1/DTD/svg11.dtd">
<svg version="1.1" id="Layer_1" xmlns="http://www.w3.org/2000/svg" xmlns:xlink="http://www.w3.org/1999/xlink" x="0px" y="0px"
	 viewBox="0 0 1082.3 299.3" enable-background="new 0 0 1082.3 299.3" xml:space="preserve">
<path fill="#233262" d="M541.3,3.4C503.6,3.4,473,34,473,71.7v104.6c0,23.4,11.8,44.1,29.7,56.4c-6.8-8.3-10.8-19-10.8-30.6V71.2
	c0-26.8,21.7-48.5,48.5-48.5S589,44.4,589,71.2v130.9c0,12.8-4.9,24.4-13,33.1c20.2-11.9,33.7-33.8,33.7-58.9V71.7
	C609.7,34,579.1,3.4,541.3,3.4z"/>
<circle fill="#FFFFFF" stroke="#233262" stroke-width="7" stroke-miterlimit="10" cx="541.3" cy="198.7" r="95.9"/>
<g>
	<path fill="#00AEEF" d="M553.8,194.7h31.3v-38.4c0,0-17.6-5.8-39.8-6.5v36.4C545.3,190.9,549.1,194.7,553.8,194.7"/>
	<path fill="#233262" d="M545.3,210.4v45.4c22.1-2.1,39.4-20.6,39.5-43.2h0.3v-9.7h-32.4C548.6,202.9,545.3,206.2,545.3,210.4"/>
	<path fill="#00AEEF" d="M528.8,194.5h-31.3v-38.4c0,0,17.6-5.7,39.8-6.5V186C537.4,190.7,533.5,194.5,528.8,194.5"/>
	<path fill="#233262" d="M537.4,210.1v45.4c-22.1-2.1-39.4-20.6-39.5-43.2h-0.3v-9.7h32.4C534,202.7,537.4,206,537.4,210.1"/>
</g>
<path fill="#3A5AA8" d="M434.8,198.7c0-4.5,0.3-8.9,0.8-13.2L194.5,197v8.3l242.3,14.3C435.5,212.8,434.8,205.8,434.8,198.7z"/>
<path fill="#8EAEDB" d="M450.6,142.8l-256.1,41v8l242-12.7C439,166,443.9,153.7,450.6,142.8z"/>
<path fill="#3A5AA8" d="M648,198.7c0-4.5-0.3-8.9-0.8-13.2L888.3,197v8.3L646,219.6C647.3,212.8,648,205.8,648,198.7z"/>
<path fill="#8EAEDB" d="M632.2,142.8l256.1,41v8l-242-12.7C643.8,166,639,153.7,632.2,142.8z"/>
<path fill="#233262" stroke="#FFFFFF" stroke-width="0.5" stroke-miterlimit="10" d="M6.8,102.4h169.4c3.1,0,5.4,1.6,6.7,4.8
	c0.2,0.6,0.4,1.2,0.4,1.9v138c0,2.2-1.1,4.1-3.4,5.7c-1.2,0.7-2.5,1.1-4,1.1H7.2c-3.2,0-5.5-1.6-6.8-4.7c-0.2-0.7-0.4-1.5-0.4-2.4
	V109.3c0-3,1.5-5.2,4.6-6.6C5.5,102.5,6.3,102.4,6.8,102.4z M113.7,254.5c0.2,0,0.7,2.7,1.5,8c1.1,7,1.7,10.9,1.9,11.4
	c0.7,1.4,2.3,2.6,4.8,3.6c2.3,0.7,3.5,1.2,3.5,1.5c0.2,0,0.2,0.3,0.2,0.9v0.4c0,1.3-0.9,2-2.6,2H59.9c-0.9,0-1.5-0.3-1.9-1
	c-0.2-0.2-0.2-0.5-0.2-0.7V280c0-0.7,0.2-1.2,0.5-1.5c0.6-0.4,1.9-1,3.9-1.6c2-1.1,3.5-3,4.5-5.8c0.2-0.7,0.8-4.6,1.7-11.4l0.9-5.1
	H113.7z"/>
<path fill="none" stroke="#FFFFFF" stroke-miterlimit="10" d="M12.5,108.5h158c2.9,0,5,1.2,6.3,3.6c0.2,0.4,0.3,0.9,0.3,1.4v101.7
	c0,1.6-1,3.1-3.1,4.2c-1.1,0.6-2.3,0.8-3.7,0.8H12.9c-3,0-5.1-1.2-6.4-3.5c-0.2-0.5-0.3-1.1-0.3-1.7V113.6c0-2.2,1.4-3.8,4.3-4.9
	C11.3,108.6,12,108.5,12.5,108.5z"/>
<g>
	<path fill="#FFFFFF" d="M12.9,114.1v98.7H170c0.1,0,0.1,0,0.1-0.1v-98.5c0-0.1,0-0.1-0.1-0.1H12.9z"/>
</g>
<circle fill="#FFFFFF" cx="92.2" cy="236.8" r="4.2"/>
<g>
	<path fill="#233262" d="M94.3,173.2l-43.1,20.1c-3.1,1.5-5.7,4.6-7.1,8.6l-2.9,8.3h101.9l-3.2-8.5c-1.2-3.2-3.3-5.7-5.8-7.1
		L94.3,173.2z"/>
	<g>
		<path fill="#233262" d="M92.4,182.8c-12.6,0-21.7-21.6-21.7-32.8c0-12,9.7-21.7,21.7-21.7s21.7,9.7,21.7,21.7
			C114.2,161.3,105,182.8,92.4,182.8z"/>
		<path fill="#FFFFFF" d="M92.4,129.3c11.4,0,20.7,9.3,20.7,20.7c0,11.4-9.3,31.8-20.7,31.8c-11.4,0-20.7-20.3-20.7-31.8
			C71.7,138.6,81,129.3,92.4,129.3 M92.4,127.3c-12.5,0-22.7,10.2-22.7,22.7c0,6.2,2.5,14.5,6.3,21.2c4.7,8.1,10.5,12.6,16.4,12.6
			s11.7-4.5,16.4-12.6c3.8-6.7,6.3-15,6.3-21.2C115.2,137.5,105,127.3,92.4,127.3L92.4,127.3z"/>
	</g>
</g>
<path fill="#233262" stroke="#FFFFFF" stroke-width="0.5" stroke-miterlimit="10" d="M905.8,102.4h169.4c3.1,0,5.4,1.6,6.7,4.8
	c0.2,0.6,0.4,1.2,0.4,1.9v138c0,2.2-1.1,4.1-3.4,5.7c-1.2,0.7-2.5,1.1-4,1.1H906.2c-3.2,0-5.5-1.6-6.8-4.7c-0.2-0.7-0.4-1.5-0.4-2.4
	V109.3c0-3,1.5-5.2,4.6-6.6C904.5,102.5,905.2,102.4,905.8,102.4z M1012.7,254.5c0.2,0,0.7,2.7,1.5,8c1.1,7,1.7,10.9,1.9,11.4
	c0.7,1.4,2.3,2.6,4.8,3.6c2.3,0.7,3.5,1.2,3.5,1.5c0.2,0,0.2,0.3,0.2,0.9v0.4c0,1.3-0.9,2-2.6,2h-63.1c-0.9,0-1.5-0.3-1.9-1
	c-0.2-0.2-0.2-0.5-0.2-0.7V280c0-0.7,0.2-1.2,0.5-1.5c0.6-0.4,1.9-1,3.9-1.6c2-1.1,3.5-3,4.5-5.8c0.2-0.7,0.8-4.6,1.7-11.4l0.9-5.1
	H1012.7z"/>
<path fill="none" stroke="#FFFFFF" stroke-miterlimit="10" d="M911.5,108.5h158c2.9,0,5,1.2,6.3,3.6c0.2,0.4,0.3,0.9,0.3,1.4v101.7
	c0,1.6-1,3.1-3.1,4.2c-1.1,0.6-2.3,0.8-3.7,0.8H911.8c-3,0-5.1-1.2-6.4-3.5c-0.2-0.5-0.3-1.1-0.3-1.7V113.6c0-2.2,1.4-3.8,4.3-4.9
	C910.3,108.6,911,108.5,911.5,108.5z"/>
<g>
	<path fill="#FFFFFF" d="M911.8,114.1v98.7h157.1c0.1,0,0.1,0,0.1-0.1v-98.5c0-0.1,0-0.1-0.1-0.1H911.8z"/>
</g>
<circle fill="#FFFFFF" cx="991.2" cy="236.8" r="4.2"/>
<g>
	<path fill="#233262" d="M993.2,173.2l-43.1,20.1c-3.1,1.5-5.7,4.6-7.1,8.6l-2.9,8.3h101.9l-3.2-8.5c-1.2-3.2-3.3-5.7-5.8-7.1
		L993.2,173.2z"/>
	<g>
		<path fill="#233262" d="M991.4,182.8c-12.5,0-21.7-21.6-21.7-32.8c0-12,9.7-21.7,21.7-21.7s21.7,9.7,21.7,21.7
			C1013.1,161.3,1004,182.8,991.4,182.8z"/>
		<path fill="#FFFFFF" d="M991.4,129.3c11.4,0,20.7,9.3,20.7,20.7c0,11.4-9.3,31.8-20.7,31.8c-11.4,0-20.7-20.3-20.7-31.8
			C970.7,138.6,980,129.3,991.4,129.3 M991.4,127.3c-12.5,0-22.7,10.2-22.7,22.7c0,6.2,2.5,14.5,6.3,21.2
			c4.7,8.1,10.5,12.6,16.4,12.6c5.9,0,11.7-4.5,16.4-12.6c3.8-6.7,6.3-15,6.3-21.2C1014.1,137.5,1003.9,127.3,991.4,127.3
			L991.4,127.3z"/>
	</g>
</g>
<text transform="matrix(0.9976 6.975999e-02 -6.975999e-02 0.9976 677.0128 175.3273)" font-family="'Oxygen-Bold'" font-size="13">Video Data Account</text>
<text transform="matrix(1 -7.340000e-03 7.340000e-03 1 381.8297 207.01)" fill="#FFFFFF" font-family="'Oxygen-Bold'" font-size="15"> VPN</text>
<text transform="matrix(1 -7.340000e-03 7.340000e-03 1 674.4964 207.01)" fill="#FFFFFF" font-family="'Oxygen-Bold'" font-size="15"> VPN</text>
<text transform="matrix(0.9976 -6.975999e-02 6.975999e-02 0.9976 294.0696 182.9382)" font-family="'Oxygen-Bold'" font-size="13">Video Data Account</text>
</svg>
