<?xml version="1.0" encoding="utf-8"?>
<!-- Generator: Adobe Illustrator 18.0.0, SVG Export Plug-In . SVG Version: 6.00 Build 0)  -->
<!DOCTYPE svg PUBLIC "-//W3C//DTD SVG 1.1//EN" "http://www.w3.org/Graphics/SVG/1.1/DTD/svg11.dtd">
<svg version="1.1" id="Layer_1" xmlns="http://www.w3.org/2000/svg" xmlns:xlink="http://www.w3.org/1999/xlink" x="0px" y="0px"
	 viewBox="0 0 82.1 57.7" enable-background="new 0 0 82.1 57.7" xml:space="preserve">
<g>
	<path fill="#233262" d="M67.2,57.6L67.2,57.6l-49.8,0.1v-0.1c-0.4,0.1-0.8,0.1-1.2,0.1C7.3,57.7,0,50.4,0,41.4c0-5.7,3-10,7.9-13
		c-0.3-1.2-0.5-3.4-0.5-4.6c0-9,7.3-15.3,16.2-15.3c3.9,0,7.7,2.5,10.6,5C37.5,6.6,44.6,0,52.3,0c11,0,19.9,9,19.9,20.1
		c0,2-0.3,5-0.9,6.9c6.5,2.3,10.9,7.5,10.9,14.3C82.1,49.9,75.6,57,67.2,57.6z"/>
</g>
<g>
	<g>
		<path fill="#233262" d="M65.8,55L65.8,55L18.7,55V55C18.3,55,17.9,55,17.6,55C9.1,55,2.2,48.4,2.2,40.2c0-5.2,2.9-9.1,7.5-11.8
			c-0.3-1-0.4-3.1-0.4-4.2c0-8.2,6.9-13.9,15.3-13.9c3.7,0,7.2,2.3,10.1,4.6c3.1-6.3,9.7-12.3,17-12.3c10.4,0,18.8,8.2,18.8,18.3
			c0,1.8-0.3,4.6-0.9,6.3c6.1,2,10.3,6.8,10.3,13C79.9,48,73.7,54.4,65.8,55z"/>
		<g>
			<g>
				<path fill="none" stroke="#FFFFFF" stroke-width="0.75" stroke-miterlimit="10" d="M66,55c-0.1,0-0.2,0-0.2,0V55h-0.2"/>
				
					<line fill="none" stroke="#FFFFFF" stroke-width="0.75" stroke-miterlimit="10" stroke-dasharray="0.4752,4.7516" x1="60.8" y1="55" x2="21.3" y2="55"/>
				<path fill="none" stroke="#FFFFFF" stroke-width="0.75" stroke-miterlimit="10" d="M18.9,55h-0.2V55c-0.1,0-0.2,0-0.2,0"/>
				<path fill="none" stroke="#FFFFFF" stroke-width="0.75" stroke-miterlimit="10" stroke-dasharray="0.5127,5.127" d="M13.4,54.5
					C7,52.7,2.2,47,2.2,40.2c0-4.3,1.9-7.6,5.1-10.2"/>
				<path fill="none" stroke="#FFFFFF" stroke-width="0.75" stroke-miterlimit="10" d="M9.5,28.5c0.1,0,0.1-0.1,0.2-0.1
					c0-0.1,0-0.2-0.1-0.2"/>
				<path fill="none" stroke="#FFFFFF" stroke-width="0.75" stroke-miterlimit="10" stroke-dasharray="0.5006,5.0058" d="M9.3,23.2
					c0.6-7.6,7.2-12.9,15.3-12.9c2.8,0,5.5,1.3,7.9,2.9"/>
				<path fill="none" stroke="#FFFFFF" stroke-width="0.75" stroke-miterlimit="10" d="M34.5,14.7c0.1,0.1,0.1,0.1,0.2,0.2
					c0-0.1,0.1-0.1,0.1-0.2"/>
				<path fill="none" stroke="#FFFFFF" stroke-width="0.75" stroke-miterlimit="10" stroke-dasharray="0.5232,5.2318" d="M37.6,10.3
					c3.5-4.4,8.6-7.7,14-7.7c10.4,0,18.8,8.2,18.8,18.3c0,1-0.1,2.3-0.3,3.5"/>
				<path fill="none" stroke="#FFFFFF" stroke-width="0.75" stroke-miterlimit="10" d="M69.7,26.9c0,0.1-0.1,0.2-0.1,0.2
					c0.1,0,0.2,0.1,0.2,0.1"/>
				<path fill="none" stroke="#FFFFFF" stroke-width="0.75" stroke-miterlimit="10" stroke-dasharray="0.5235,5.2346" d="M74.5,29.7
					c3.4,2.5,5.4,6.2,5.4,10.5c0,6.8-4.8,12.6-11.3,14.3"/>
			</g>
		</g>
	</g>
</g>
<rect x="27.5" y="29.2" fill="#FFFFFF" width="14.9" height="3.9"/>
<g>
	<rect x="27.6" y="35.6" fill="#FFFFFF" width="4" height="3.2"/>
	<rect x="32.9" y="35.6" fill="#FFFFFF" width="4" height="3.2"/>
	<rect x="38.3" y="35.6" fill="#FFFFFF" width="4" height="3.2"/>
	<rect x="27.6" y="39.9" fill="#FFFFFF" width="4" height="3.2"/>
	<rect x="32.9" y="39.9" fill="#FFFFFF" width="4" height="3.2"/>
	<rect x="38.3" y="39.9" fill="#FFFFFF" width="4" height="3.2"/>
	<rect x="27.6" y="44.2" fill="#FFFFFF" width="4" height="3.2"/>
	<rect x="32.9" y="44.2" fill="#FFFFFF" width="4" height="3.2"/>
	<rect x="38.3" y="44.2" fill="#FFFFFF" width="4" height="3.2"/>
</g>
<g>
	<path fill="#FFFFFF" d="M59.5,40.7c0-0.2-0.4-0.4-0.8-0.4l-2.3,0c-0.5,0-0.8,0.2-0.8,0.4l0,1.1c0,0.2,0.4,0.4,0.8,0.4l2.3,0
		c0.5,0,0.8-0.2,0.8-0.4l0-0.2l11.8-0.1l0,0.2c0,0.2,0.4,0.4,0.8,0.4l2.3,0c0.5,0,0.8-0.2,0.8-0.4l0-1.1c0-0.2-0.4-0.4-0.8-0.4
		l-2.3,0c-0.5,0-0.8,0.2-0.8,0.4l0,0.1l-11.8,0.1L59.5,40.7z"/>
	<path fill="#FFFFFF" d="M65.9,35.3c0.2,0,0.4-0.4,0.4-0.8l0-2.3c0-0.5-0.2-0.8-0.4-0.8l-1.1,0c-0.2,0-0.4,0.4-0.4,0.8l0,2.3
		c0,0.5,0.2,0.8,0.4,0.8l0.2,0l0.1,11.8l-0.2,0c-0.2,0-0.4,0.4-0.4,0.8l0,2.3c0,0.5,0.2,0.8,0.4,0.8l1.1,0c0.2,0,0.4-0.4,0.4-0.8
		l0-2.3c0-0.5-0.2-0.8-0.4-0.8l-0.1,0l-0.1-11.8L65.9,35.3z"/>
	<circle fill="#FFFFFF" cx="65.4" cy="41.2" r="2.4"/>
	<circle fill="#233262" cx="65.4" cy="41.2" r="0.9"/>
</g>
</svg>
