<?xml version="1.0" encoding="utf-8"?>
<!-- Generator: Adobe Illustrator 18.0.0, SVG Export Plug-In . SVG Version: 6.00 Build 0)  -->
<!DOCTYPE svg PUBLIC "-//W3C//DTD SVG 1.1//EN" "http://www.w3.org/Graphics/SVG/1.1/DTD/svg11.dtd">
<svg version="1.1" id="Layer_1" xmlns="http://www.w3.org/2000/svg" xmlns:xlink="http://www.w3.org/1999/xlink" x="0px" y="0px"
	 viewBox="0 0 115.8 175.3" enable-background="new 0 0 115.8 175.3" xml:space="preserve">
<g>
	<path fill="#233262" stroke="#FFFFFF" stroke-width="0.5" stroke-miterlimit="10" d="M4.7,0h75.6c1.4,0,2.4,0.7,3,2.2
		c0.1,0.3,0.2,0.5,0.2,0.8v61.6c0,1-0.5,1.8-1.5,2.6c-0.5,0.3-1.1,0.5-1.8,0.5H4.8c-1.4,0-2.5-0.7-3.1-2.1c-0.1-0.3-0.2-0.7-0.2-1.1
		V3.1c0-1.3,0.7-2.3,2.1-2.9C4.1,0.1,4.4,0,4.7,0z M52.4,67.9c0.1,0,0.3,1.2,0.7,3.6c0.5,3.1,0.8,4.8,0.8,5.1c0.3,0.6,1,1.2,2.2,1.6
		c1,0.3,1.6,0.5,1.6,0.7c0.1,0,0.1,0.1,0.1,0.4v0.2c0,0.6-0.4,0.9-1.2,0.9H28.4c-0.4,0-0.7-0.1-0.8-0.4c-0.1-0.1-0.1-0.2-0.1-0.3
		v-0.2c0-0.3,0.1-0.6,0.2-0.7c0.3-0.2,0.8-0.4,1.7-0.7c0.9-0.5,1.6-1.3,2-2.6c0.1-0.3,0.4-2,0.8-5.1l0.4-2.3H52.4z"/>
	<path fill="none" stroke="#FFFFFF" stroke-width="0.5" stroke-miterlimit="10" d="M7.2,2.8h70.5c1.3,0,2.2,0.5,2.8,1.6
		c0.1,0.2,0.2,0.4,0.2,0.6v45.4c0,0.7-0.5,1.4-1.4,1.9c-0.5,0.2-1,0.4-1.7,0.4H7.4c-1.3,0-2.3-0.5-2.8-1.6c-0.1-0.2-0.2-0.5-0.2-0.8
		V5c0-1,0.6-1.7,1.9-2.2C6.7,2.8,7,2.8,7.2,2.8z"/>
	<g>
		<path fill="#FFFFFF" d="M7.4,5.3v44.1h70.1c0,0,0.1,0,0.1-0.1v-44c0,0,0-0.1-0.1-0.1H7.4z"/>
	</g>
	<circle fill="#FFFFFF" cx="42.8" cy="60" r="1.9"/>
</g>
<g>
	<path fill="#233262" stroke="#FFFFFF" stroke-width="0.5" stroke-miterlimit="10" d="M3.1,95h75.6c1.4,0,2.4,0.7,3,2.2
		c0.1,0.3,0.2,0.5,0.2,0.8v61.6c0,1-0.5,1.8-1.5,2.6c-0.5,0.3-1.1,0.5-1.8,0.5H3.2c-1.4,0-2.5-0.7-3.1-2.1c-0.1-0.3-0.2-0.7-0.2-1.1
		V98.1c0-1.3,0.7-2.3,2.1-2.9C2.5,95.1,2.8,95,3.1,95z M50.8,162.9c0.1,0,0.3,1.2,0.7,3.6c0.5,3.1,0.8,4.8,0.8,5.1
		c0.3,0.6,1,1.2,2.2,1.6c1,0.3,1.6,0.5,1.6,0.7c0.1,0,0.1,0.1,0.1,0.4v0.2c0,0.6-0.4,0.9-1.2,0.9H26.7c-0.4,0-0.7-0.1-0.8-0.4
		c-0.1-0.1-0.1-0.2-0.1-0.3v-0.2c0-0.3,0.1-0.6,0.2-0.7c0.3-0.2,0.8-0.4,1.7-0.7c0.9-0.5,1.6-1.3,2-2.6c0.1-0.3,0.4-2,0.8-5.1
		l0.4-2.3H50.8z"/>
	<path fill="none" stroke="#FFFFFF" stroke-width="0.5" stroke-miterlimit="10" d="M5.6,97.8h70.5c1.3,0,2.2,0.5,2.8,1.6
		c0.1,0.2,0.2,0.4,0.2,0.6v45.4c0,0.7-0.5,1.4-1.4,1.9c-0.5,0.2-1,0.4-1.7,0.4H5.8c-1.3,0-2.3-0.5-2.8-1.6c-0.1-0.2-0.2-0.5-0.2-0.8
		V100c0-1,0.6-1.7,1.9-2.2C5,97.8,5.4,97.8,5.6,97.8z"/>
	<g>
		<path fill="#FFFFFF" d="M5.7,100.3v44.1h70.1c0,0,0.1,0,0.1-0.1v-44c0,0,0-0.1-0.1-0.1H5.7z"/>
	</g>
	<circle fill="#FFFFFF" cx="41.2" cy="155" r="1.9"/>
</g>
<g>
	<path fill="#233262" d="M42.2,126.6l-19.2,9c-1.4,0.7-2.5,2-3.2,3.8l-1.3,3.7h45.5l-1.4-3.8c-0.5-1.4-1.5-2.6-2.6-3.2L42.2,126.6z"
		/>
	<g>
		<path fill="#233262" d="M41.4,131.5c-6,0-10.2-9.9-10.2-15.2c0-5.7,4.6-10.2,10.2-10.2s10.2,4.6,10.2,10.2
			C51.7,121.6,47.4,131.5,41.4,131.5z"/>
		<path fill="#FFFFFF" d="M41.4,107c5.1,0,9.2,4.1,9.2,9.2c0,5.1-4.1,14.2-9.2,14.2c-5.1,0-9.2-9.1-9.2-14.2
			C32.2,111.2,36.3,107,41.4,107 M41.4,105c-6.2,0-11.2,5-11.2,11.2c0,5.6,4.4,16.2,11.2,16.2c3,0,6-2.2,8.3-6.2c1.8-3.1,3-7.1,3-10
			C52.7,110.1,47.6,105,41.4,105L41.4,105z"/>
	</g>
</g>
<g>
	<path fill="#233262" d="M43.7,31.6l-19.2,9c-1.4,0.7-2.5,2-3.2,3.8L20,48.1h45.5l-1.4-3.8c-0.5-1.4-1.5-2.6-2.6-3.2L43.7,31.6z"/>
	<g>
		<path fill="#233262" d="M42.9,36.5c-6,0-10.2-9.9-10.2-15.2c0-5.7,4.6-10.2,10.2-10.2s10.2,4.6,10.2,10.2
			C53.1,26.6,48.9,36.5,42.9,36.5z"/>
		<path fill="#FFFFFF" d="M42.9,12c5.1,0,9.2,4.1,9.2,9.2c0,5.1-4.1,14.2-9.2,14.2c-5.1,0-9.2-9.1-9.2-14.2
			C33.6,16.2,37.8,12,42.9,12 M42.9,10c-6.2,0-11.2,5-11.2,11.2c0,5.6,4.4,16.2,11.2,16.2c3,0,6-2.2,8.3-6.2c1.8-3.1,3-7.1,3-10
			C54.1,15.1,49.1,10,42.9,10L42.9,10z"/>
	</g>
</g>
<path fill="none" stroke="#262261" stroke-width="2" stroke-miterlimit="10" d="M85.3,24.7h8.3c5.9,0,10.7,4.8,10.7,10.7v31.1"/>
<path fill="none" stroke="#262261" stroke-width="2" stroke-miterlimit="10" d="M85.3,145.9h8.3c5.9,0,10.7-4.8,10.7-10.7V104"/>
<path fill="none" stroke="#404041" stroke-width="2" stroke-miterlimit="10" d="M104.3,70.7c-3.8,0-6.8,3-6.8,6.8c0,2.8,0,9.2,0,9.2
	l13.6,0.1c0,0,0-5.5,0-9.3C111.1,73.7,108,70.7,104.3,70.7z"/>
<circle fill="#FFFFFF" stroke="#404041" stroke-width="2" stroke-miterlimit="10" cx="104.3" cy="89.9" r="10.3"/>
<g>
	<path fill="#233262" d="M104.5,90.8v4c1.9-0.2,3.5-1.8,3.5-3.8h0v-0.9h-2.8C104.8,90.2,104.5,90.5,104.5,90.8z"/>
	<path fill="#00ADEE" d="M103.1,89.4h-2.8v-3.4c0,0,1.6-0.5,3.5-0.6v3.2C103.8,89.1,103.5,89.4,103.1,89.4z"/>
	<path fill="#233262" d="M103.8,90.8v4c-1.9-0.2-3.5-1.8-3.5-3.8h0v-0.9h2.8C103.5,90.2,103.8,90.5,103.8,90.8z"/>
	<path fill="#00ADEE" d="M105.3,89.5h2.8v-3.4c0,0-1.6-0.5-3.5-0.6v3.2C104.5,89.1,104.9,89.5,105.3,89.5z"/>
</g>
</svg>
