<?xml version="1.0" encoding="utf-8"?>
<!-- Generator: Adobe Illustrator 18.0.0, SVG Export Plug-In . SVG Version: 6.00 Build 0)  -->
<!DOCTYPE svg PUBLIC "-//W3C//DTD SVG 1.1//EN" "http://www.w3.org/Graphics/SVG/1.1/DTD/svg11.dtd">
<svg version="1.1" id="Layer_1" xmlns="http://www.w3.org/2000/svg" xmlns:xlink="http://www.w3.org/1999/xlink" x="0px" y="0px"
	 viewBox="0 0 1076.3 300.7" enable-background="new 0 0 1076.3 300.7" xml:space="preserve">
<path fill="#233262" d="M537.3,4.4C499.6,4.4,469,35,469,72.7v104.6c0,23.4,11.8,44.1,29.7,56.4c-6.8-8.3-10.8-19-10.8-30.6V72.2
	c0-26.8,21.7-48.5,48.5-48.5c26.8,0,48.5,21.7,48.5,48.5v130.9c0,12.8-4.9,24.4-13,33.1c20.2-11.9,33.7-33.8,33.7-58.9V72.7
	C605.7,35,575.1,4.4,537.3,4.4z"/>
<circle fill="#FFFFFF" stroke="#233262" stroke-width="7" stroke-miterlimit="10" cx="537.3" cy="199.7" r="95.9"/>
<g>
	<path fill="#00AEEF" d="M549.8,195.7h31.3v-38.4c0,0-17.6-5.8-39.8-6.5v36.4C541.3,191.9,545.1,195.7,549.8,195.7"/>
	<path fill="#233262" d="M541.3,211.4v45.4c22.1-2.1,39.4-20.6,39.5-43.2h0.3v-9.7h-32.4C544.6,203.9,541.3,207.2,541.3,211.4"/>
	<path fill="#00AEEF" d="M524.8,195.5h-31.3v-38.4c0,0,17.6-5.7,39.8-6.5V187C533.3,191.7,529.5,195.5,524.8,195.5"/>
	<path fill="#233262" d="M533.3,211.1v45.4c-22.1-2.1-39.4-20.6-39.5-43.2h-0.3v-9.7h32.4C530,203.7,533.3,207,533.3,211.1"/>
</g>
<path fill="#8EAEDB" d="M446.6,143.8l-256.1,41v8l242-12.7C435,167,439.8,154.7,446.6,143.8z"/>
<path fill="#8EAEDB" d="M628.2,143.8l256.1,41v8l-242-12.7C639.8,167,635,154.7,628.2,143.8z"/>
<path fill="#233262" stroke="#FFFFFF" stroke-width="0.5" stroke-miterlimit="10" d="M6.8,103.4h169.4c3.1,0,5.4,1.6,6.7,4.8
	c0.2,0.6,0.4,1.2,0.4,1.9v138c0,2.2-1.1,4.1-3.4,5.7c-1.2,0.7-2.5,1.1-4,1.1H7.2c-3.2,0-5.5-1.6-6.8-4.7c-0.2-0.7-0.4-1.5-0.4-2.4
	V110.3c0-3,1.5-5.2,4.6-6.6C5.5,103.5,6.3,103.4,6.8,103.4z M113.7,255.5c0.2,0,0.7,2.7,1.5,8c1.1,7,1.7,10.9,1.9,11.4
	c0.7,1.4,2.3,2.6,4.8,3.6c2.3,0.7,3.5,1.2,3.5,1.5c0.2,0,0.2,0.3,0.2,0.9v0.4c0,1.3-0.9,2-2.6,2H59.9c-0.9,0-1.5-0.3-1.9-1
	c-0.2-0.2-0.2-0.5-0.2-0.7V281c0-0.7,0.2-1.2,0.5-1.5c0.6-0.4,1.9-1,3.9-1.6c2-1.1,3.5-3,4.5-5.8c0.2-0.7,0.8-4.6,1.7-11.4l0.9-5.1
	H113.7z"/>
<path fill="none" stroke="#FFFFFF" stroke-miterlimit="10" d="M12.5,109.5h158c2.9,0,5,1.2,6.3,3.6c0.2,0.4,0.3,0.9,0.3,1.4v101.7
	c0,1.6-1,3.1-3.1,4.2c-1.1,0.6-2.3,0.8-3.7,0.8H12.9c-3,0-5.1-1.2-6.4-3.5c-0.2-0.5-0.3-1.1-0.3-1.7V114.6c0-2.2,1.4-3.8,4.3-4.9
	C11.3,109.6,12,109.5,12.5,109.5z"/>
<g>
	<path fill="#FFFFFF" d="M12.9,115.1v98.7H170c0.1,0,0.1,0,0.1-0.1v-98.5c0-0.1,0-0.1-0.1-0.1H12.9z"/>
</g>
<circle fill="#FFFFFF" cx="92.2" cy="237.8" r="4.2"/>
<g>
	<path fill="#233262" d="M94.3,174.2l-43.1,20.1c-3.1,1.5-5.7,4.6-7.1,8.6l-2.9,8.3h101.9l-3.2-8.5c-1.2-3.2-3.3-5.7-5.8-7.1
		L94.3,174.2z"/>
	<g>
		<path fill="#233262" d="M92.4,183.8c-12.6,0-21.7-21.6-21.7-32.8c0-12,9.7-21.7,21.7-21.7s21.7,9.7,21.7,21.7
			C114.2,162.3,105,183.8,92.4,183.8z"/>
		<path fill="#FFFFFF" d="M92.4,130.3c11.4,0,20.7,9.3,20.7,20.7c0,11.4-9.3,31.8-20.7,31.8c-11.4,0-20.7-20.3-20.7-31.8
			C71.7,139.6,81,130.3,92.4,130.3 M92.4,128.3c-12.5,0-22.7,10.2-22.7,22.7c0,6.2,2.5,14.5,6.3,21.2c4.7,8.1,10.5,12.6,16.4,12.6
			s11.7-4.5,16.4-12.6c3.8-6.7,6.3-15,6.3-21.2C115.2,138.5,105,128.3,92.4,128.3L92.4,128.3z"/>
	</g>
</g>
<path fill="#233262" stroke="#FFFFFF" stroke-width="0.5" stroke-miterlimit="10" d="M899.8,103.4h169.4c3.1,0,5.4,1.6,6.7,4.8
	c0.2,0.6,0.4,1.2,0.4,1.9v138c0,2.2-1.1,4.1-3.4,5.7c-1.2,0.7-2.5,1.1-4,1.1H900.2c-3.2,0-5.5-1.6-6.8-4.7c-0.2-0.7-0.4-1.5-0.4-2.4
	V110.3c0-3,1.5-5.2,4.6-6.6C898.5,103.5,899.2,103.4,899.8,103.4z M1006.7,255.5c0.2,0,0.7,2.7,1.5,8c1.1,7,1.7,10.9,1.9,11.4
	c0.7,1.4,2.3,2.6,4.8,3.6c2.3,0.7,3.5,1.2,3.5,1.5c0.2,0,0.2,0.3,0.2,0.9v0.4c0,1.3-0.9,2-2.6,2h-63.1c-0.9,0-1.5-0.3-1.9-1
	c-0.2-0.2-0.2-0.5-0.2-0.7V281c0-0.7,0.2-1.2,0.5-1.5c0.6-0.4,1.9-1,3.9-1.6c2-1.1,3.5-3,4.5-5.8c0.2-0.7,0.8-4.6,1.7-11.4l0.9-5.1
	H1006.7z"/>
<path fill="none" stroke="#FFFFFF" stroke-miterlimit="10" d="M905.5,109.5h158c2.9,0,5,1.2,6.3,3.6c0.2,0.4,0.3,0.9,0.3,1.4v101.7
	c0,1.6-1,3.1-3.1,4.2c-1.1,0.6-2.3,0.8-3.7,0.8H905.8c-3,0-5.1-1.2-6.4-3.5c-0.2-0.5-0.3-1.1-0.3-1.7V114.6c0-2.2,1.4-3.8,4.3-4.9
	C904.3,109.6,905,109.5,905.5,109.5z"/>
<g>
	<path fill="#FFFFFF" d="M905.8,115.1v98.7h157.1c0.1,0,0.1,0,0.1-0.1v-98.5c0-0.1,0-0.1-0.1-0.1H905.8z"/>
</g>
<circle fill="#FFFFFF" cx="985.2" cy="237.8" r="4.2"/>
<g>
	<path fill="#233262" d="M987.2,174.2l-43.1,20.1c-3.1,1.5-5.7,4.6-7.1,8.6l-2.9,8.3h101.9l-3.2-8.5c-1.2-3.2-3.3-5.7-5.8-7.1
		L987.2,174.2z"/>
	<g>
		<path fill="#233262" d="M985.4,183.8c-12.6,0-21.7-21.6-21.7-32.8c0-12,9.7-21.7,21.7-21.7s21.7,9.7,21.7,21.7
			C1007.1,162.3,998,183.8,985.4,183.8z"/>
		<path fill="#FFFFFF" d="M985.4,130.3c11.4,0,20.7,9.3,20.7,20.7c0,11.4-9.3,31.8-20.7,31.8c-11.4,0-20.7-20.3-20.7-31.8
			C964.7,139.6,974,130.3,985.4,130.3 M985.4,128.3c-12.5,0-22.7,10.2-22.7,22.7c0,6.2,2.5,14.5,6.3,21.2
			c4.7,8.1,10.5,12.6,16.4,12.6c5.9,0,11.7-4.5,16.4-12.6c3.8-6.7,6.3-15,6.3-21.2C1008.1,138.5,997.9,128.3,985.4,128.3
			L985.4,128.3z"/>
	</g>
</g>
<text transform="matrix(0.9976 6.975999e-02 -6.975999e-02 0.9976 673.0096 176.3273)" font-family="'Oxygen-Bold'" font-size="13">Video Data Account</text>
<text transform="matrix(0.9976 -6.975999e-02 6.975999e-02 0.9976 290.0664 183.9382)" font-family="'Oxygen-Bold'" font-size="13">Video Data Account</text>
</svg>
